<svg width="128" height="30" viewBox="0 0 64 12" fill="none" xmlns="http://www.w3.org/2000/svg">
<mask id="path-1-outside-1_5095_6128" maskUnits="userSpaceOnUse" x="-1" y="-1" width="66" height="14" fill="black">
<rect fill="white" x="-1" y="-1" width="66" height="14"/>
<path d="M0.890312 1.10156H1.69695L5.42937 9.97461H5.49773L9.23016 1.10156H10.0231V11H9.3532V2.70117H9.28484L5.78484 11H5.12859L1.62859 2.70117H1.57391V11H0.890312V1.10156ZM23.5643 1.10156H24.2752V7.65039C24.2752 9.67383 22.744 11.1641 20.5838 11.1641C18.4237 11.1641 16.8924 9.67383 16.8924 7.65039V1.10156H17.6034V7.60938C17.6034 9.26367 18.8202 10.4805 20.5838 10.4805C22.3475 10.4805 23.5643 9.26367 23.5643 7.60938V1.10156ZM31.1309 11V1.10156H34.2344C36.1895 1.10156 37.3105 2.38672 37.3105 4.10938C37.3105 5.81836 36.1895 7.10352 34.248 7.10352H31.8418V11H31.1309ZM31.8418 6.46094H34.2207C35.7383 6.46094 36.5996 5.47656 36.5996 4.10938C36.5996 2.72852 35.7383 1.74414 34.2207 1.74414H31.8418V6.46094ZM48.9923 3.58984C48.8966 2.40039 47.9396 1.60742 46.5588 1.60742C45.1369 1.60742 44.1252 2.44141 44.1252 3.57617C44.1252 4.60156 45.0138 5.16211 46.1349 5.49023L47.2013 5.80469C48.6232 6.21484 49.8263 6.91211 49.8263 8.40234C49.8263 9.98828 48.5412 11.1641 46.4904 11.1641C44.5353 11.1641 43.2912 10.1113 43.1818 8.56641H43.9064C44.0021 9.7832 45.0548 10.5078 46.4904 10.5078C48.0353 10.5078 49.1291 9.66016 49.1291 8.40234C49.1291 7.37695 48.3498 6.85742 46.9963 6.44727L45.8341 6.10547C44.2892 5.62695 43.4279 4.83398 43.4279 3.60352C43.4279 2.04492 44.7814 0.951172 46.5724 0.951172C48.3634 0.951172 49.6213 2.05859 49.6896 3.58984H48.9923ZM55.2327 1.10156H56.0667L59.1292 5.8457H59.1976L62.2464 1.10156H63.0804L59.5257 6.58398V11H58.8011V6.58398L55.2327 1.10156Z"/>
</mask>
<path d="M0.890312 1.10156H1.69695L5.42937 9.97461H5.49773L9.23016 1.10156H10.0231V11H9.3532V2.70117H9.28484L5.78484 11H5.12859L1.62859 2.70117H1.57391V11H0.890312V1.10156ZM23.5643 1.10156H24.2752V7.65039C24.2752 9.67383 22.744 11.1641 20.5838 11.1641C18.4237 11.1641 16.8924 9.67383 16.8924 7.65039V1.10156H17.6034V7.60938C17.6034 9.26367 18.8202 10.4805 20.5838 10.4805C22.3475 10.4805 23.5643 9.26367 23.5643 7.60938V1.10156ZM31.1309 11V1.10156H34.2344C36.1895 1.10156 37.3105 2.38672 37.3105 4.10938C37.3105 5.81836 36.1895 7.10352 34.248 7.10352H31.8418V11H31.1309ZM31.8418 6.46094H34.2207C35.7383 6.46094 36.5996 5.47656 36.5996 4.10938C36.5996 2.72852 35.7383 1.74414 34.2207 1.74414H31.8418V6.46094ZM48.9923 3.58984C48.8966 2.40039 47.9396 1.60742 46.5588 1.60742C45.1369 1.60742 44.1252 2.44141 44.1252 3.57617C44.1252 4.60156 45.0138 5.16211 46.1349 5.49023L47.2013 5.80469C48.6232 6.21484 49.8263 6.91211 49.8263 8.40234C49.8263 9.98828 48.5412 11.1641 46.4904 11.1641C44.5353 11.1641 43.2912 10.1113 43.1818 8.56641H43.9064C44.0021 9.7832 45.0548 10.5078 46.4904 10.5078C48.0353 10.5078 49.1291 9.66016 49.1291 8.40234C49.1291 7.37695 48.3498 6.85742 46.9963 6.44727L45.8341 6.10547C44.2892 5.62695 43.4279 4.83398 43.4279 3.60352C43.4279 2.04492 44.7814 0.951172 46.5724 0.951172C48.3634 0.951172 49.6213 2.05859 49.6896 3.58984H48.9923ZM55.2327 1.10156H56.0667L59.1292 5.8457H59.1976L62.2464 1.10156H63.0804L59.5257 6.58398V11H58.8011V6.58398L55.2327 1.10156Z" fill="black"/>
<path d="M0.890312 1.10156V0.101562H-0.109688V1.10156H0.890312ZM1.69695 1.10156L2.61872 0.713823L2.36118 0.101562H1.69695V1.10156ZM5.42937 9.97461L4.50761 10.3623L4.76515 10.9746H5.42937V9.97461ZM5.49773 9.97461V10.9746H6.16196L6.4195 10.3623L5.49773 9.97461ZM9.23016 1.10156V0.101562H8.56593L8.30839 0.713823L9.23016 1.10156ZM10.0231 1.10156H11.0231V0.101562H10.0231V1.10156ZM10.0231 11V12H11.0231V11H10.0231ZM9.3532 11H8.3532V12H9.3532V11ZM9.3532 2.70117H10.3532V1.70117H9.3532V2.70117ZM9.28484 2.70117V1.70117H8.62129L8.36344 2.31257L9.28484 2.70117ZM5.78484 11V12H6.44839L6.70625 11.3886L5.78484 11ZM5.12859 11L4.20719 11.3886L4.46504 12H5.12859V11ZM1.62859 2.70117L2.55 2.31257L2.29214 1.70117H1.62859V2.70117ZM1.57391 2.70117V1.70117H0.573906V2.70117H1.57391ZM1.57391 11V12H2.57391V11H1.57391ZM0.890312 11H-0.109688V12H0.890312V11ZM0.890312 2.10156H1.69695V0.101562H0.890312V2.10156ZM0.775184 1.4893L4.50761 10.3623L6.35114 9.58687L2.61872 0.713823L0.775184 1.4893ZM5.42937 10.9746H5.49773V8.97461H5.42937V10.9746ZM6.4195 10.3623L10.1519 1.4893L8.30839 0.713823L4.57597 9.58687L6.4195 10.3623ZM9.23016 2.10156H10.0231V0.101562H9.23016V2.10156ZM9.02312 1.10156V11H11.0231V1.10156H9.02312ZM10.0231 10H9.3532V12H10.0231V10ZM10.3532 11V2.70117H8.3532V11H10.3532ZM9.3532 1.70117H9.28484V3.70117H9.3532V1.70117ZM8.36344 2.31257L4.86344 10.6114L6.70625 11.3886L10.2063 3.08977L8.36344 2.31257ZM5.78484 10H5.12859V12H5.78484V10ZM6.05 10.6114L2.55 2.31257L0.707187 3.08977L4.20719 11.3886L6.05 10.6114ZM1.62859 1.70117H1.57391V3.70117H1.62859V1.70117ZM0.573906 2.70117V11H2.57391V2.70117H0.573906ZM1.57391 10H0.890312V12H1.57391V10ZM1.89031 11V1.10156H-0.109688V11H1.89031ZM23.5643 1.10156V0.101562H22.5643V1.10156H23.5643ZM24.2752 1.10156H25.2752V0.101562H24.2752V1.10156ZM16.8924 1.10156V0.101562H15.8924V1.10156H16.8924ZM17.6034 1.10156H18.6034V0.101562H17.6034V1.10156ZM23.5643 2.10156H24.2752V0.101562H23.5643V2.10156ZM23.2752 1.10156V7.65039H25.2752V1.10156H23.2752ZM23.2752 7.65039C23.2752 9.08165 22.2325 10.1641 20.5838 10.1641V12.1641C23.2555 12.1641 25.2752 10.266 25.2752 7.65039H23.2752ZM20.5838 10.1641C18.9352 10.1641 17.8924 9.08165 17.8924 7.65039H15.8924C15.8924 10.266 17.9121 12.1641 20.5838 12.1641V10.1641ZM17.8924 7.65039V1.10156H15.8924V7.65039H17.8924ZM16.8924 2.10156H17.6034V0.101562H16.8924V2.10156ZM16.6034 1.10156V7.60938H18.6034V1.10156H16.6034ZM16.6034 7.60938C16.6034 9.84068 18.2929 11.4805 20.5838 11.4805V9.48047C19.3474 9.48047 18.6034 8.68666 18.6034 7.60938H16.6034ZM20.5838 11.4805C22.8747 11.4805 24.5643 9.84068 24.5643 7.60938H22.5643C22.5643 8.68666 21.8203 9.48047 20.5838 9.48047V11.4805ZM24.5643 7.60938V1.10156H22.5643V7.60938H24.5643ZM31.1309 11H30.1309V12H31.1309V11ZM31.1309 1.10156V0.101562H30.1309V1.10156H31.1309ZM31.8418 7.10352V6.10352H30.8418V7.10352H31.8418ZM31.8418 11V12H32.8418V11H31.8418ZM31.8418 6.46094H30.8418V7.46094H31.8418V6.46094ZM31.8418 1.74414V0.744141H30.8418V1.74414H31.8418ZM32.1309 11V1.10156H30.1309V11H32.1309ZM31.1309 2.10156H34.2344V0.101562H31.1309V2.10156ZM34.2344 2.10156C34.9852 2.10156 35.4818 2.3427 35.7906 2.65856C36.1042 2.97936 36.3105 3.46582 36.3105 4.10938H38.3105C38.3105 3.03027 37.9563 2.01283 37.2206 1.26038C36.4802 0.503005 35.4387 0.101562 34.2344 0.101562V2.10156ZM36.3105 4.10938C36.3105 4.74418 36.1054 5.22797 35.7923 5.54825C35.484 5.86355 34.9901 6.10352 34.248 6.10352V8.10352C35.4474 8.10352 36.4847 7.7009 37.2224 6.94638C37.9552 6.19684 38.3105 5.18355 38.3105 4.10938H36.3105ZM34.248 6.10352H31.8418V8.10352H34.248V6.10352ZM30.8418 7.10352V11H32.8418V7.10352H30.8418ZM31.8418 10H31.1309V12H31.8418V10ZM31.8418 7.46094H34.2207V5.46094H31.8418V7.46094ZM34.2207 7.46094C35.2028 7.46094 36.0728 7.13674 36.6966 6.49459C37.3151 5.85775 37.5996 5.00284 37.5996 4.10938H35.5996C35.5996 4.5831 35.4534 4.90397 35.2619 5.10111C35.0756 5.29295 34.7562 5.46094 34.2207 5.46094V7.46094ZM37.5996 4.10938C37.5996 3.21156 37.3167 2.35321 36.698 1.71366C36.0739 1.06846 35.2029 0.744141 34.2207 0.744141V2.74414C34.7561 2.74414 35.0746 2.91201 35.2605 3.10421C35.4519 3.30206 35.5996 3.62633 35.5996 4.10938H37.5996ZM34.2207 0.744141H31.8418V2.74414H34.2207V0.744141ZM30.8418 1.74414V6.46094H32.8418V1.74414H30.8418ZM48.9923 3.58984L47.9956 3.67004L48.0696 4.58984H48.9923V3.58984ZM46.1349 5.49023L46.4178 4.53106L46.4158 4.5305L46.1349 5.49023ZM47.2013 5.80469L46.9185 6.76387L46.9242 6.76551L47.2013 5.80469ZM43.1818 8.56641V7.56641H42.1085L42.1843 8.63703L43.1818 8.56641ZM43.9064 8.56641L44.9033 8.488L44.8308 7.56641H43.9064V8.56641ZM46.9963 6.44727L47.2863 5.49021L47.2784 5.4879L46.9963 6.44727ZM45.8341 6.10547L45.5383 7.0607L45.5451 7.06282L45.552 7.06483L45.8341 6.10547ZM49.6896 3.58984V4.58984H50.7352L50.6886 3.54525L49.6896 3.58984ZM49.9891 3.50964C49.9202 2.65254 49.5317 1.90329 48.8909 1.37877C48.2587 0.861293 47.4386 0.607422 46.5588 0.607422V2.60742C47.0598 2.60742 47.4086 2.75004 47.6241 2.92641C47.8309 3.09573 47.9688 3.3377 47.9956 3.67004L49.9891 3.50964ZM46.5588 0.607422C44.7874 0.607422 43.1252 1.70611 43.1252 3.57617H45.1252C45.1252 3.17671 45.4864 2.60742 46.5588 2.60742V0.607422ZM43.1252 3.57617C43.1252 4.42568 43.5115 5.08659 44.0603 5.5552C44.5769 5.99621 45.2333 6.26829 45.854 6.44997L46.4158 4.5305C45.9155 4.38405 45.567 4.21179 45.3589 4.03416C45.1832 3.88411 45.1252 3.75206 45.1252 3.57617H43.1252ZM45.8521 6.4494L46.9185 6.76386L47.4842 4.84552L46.4178 4.53106L45.8521 6.4494ZM46.9242 6.76551C47.5832 6.95562 48.0773 7.1832 48.3947 7.4564C48.6722 7.69523 48.8263 7.97342 48.8263 8.40234H50.8263C50.8263 7.34103 50.3789 6.52547 49.6994 5.94057C49.0598 5.39004 48.2413 5.06391 47.4785 4.84386L46.9242 6.76551ZM48.8263 8.40234C48.8263 8.90725 48.6298 9.31773 48.2788 9.61677C47.9171 9.92498 47.3285 10.1641 46.4904 10.1641V12.1641C47.7031 12.1641 48.7824 11.8153 49.576 11.1391C50.3803 10.4538 50.8263 9.48337 50.8263 8.40234H48.8263ZM46.4904 10.1641C45.6881 10.1641 45.1243 9.94887 44.7695 9.6644C44.4264 9.38932 44.2151 9.00137 44.1793 8.49579L42.1843 8.63703C42.2579 9.67637 42.7233 10.5872 43.5184 11.2248C44.3018 11.8529 45.3376 12.1641 46.4904 12.1641V10.1641ZM43.1818 9.56641H43.9064V7.56641H43.1818V9.56641ZM42.9095 8.64482C42.9807 9.54982 43.4206 10.2984 44.1047 10.7999C44.7693 11.2871 45.6133 11.5078 46.4904 11.5078V9.50781C45.9319 9.50781 45.5318 9.3662 45.2872 9.18691C45.0621 9.02189 44.9279 8.79979 44.9033 8.488L42.9095 8.64482ZM46.4904 11.5078C47.4376 11.5078 48.3305 11.2483 49.0096 10.711C49.7062 10.1598 50.1291 9.34904 50.1291 8.40234H48.1291C48.1291 8.71346 48.0051 8.95541 47.7686 9.14254C47.5146 9.34352 47.0881 9.50781 46.4904 9.50781V11.5078ZM50.1291 8.40234C50.1291 7.58411 49.796 6.9234 49.2178 6.43206C48.6929 5.98602 47.9977 5.70582 47.2863 5.49024L46.7062 7.40429C47.3484 7.59887 47.7196 7.78351 47.9227 7.95612C48.0725 8.08344 48.1291 8.19518 48.1291 8.40234H50.1291ZM47.2784 5.4879L46.1163 5.1461L45.552 7.06483L46.7141 7.40663L47.2784 5.4879ZM46.13 5.15024C45.4419 4.93711 45.0112 4.68394 44.7617 4.43232C44.5392 4.20793 44.4279 3.95523 44.4279 3.60352H42.4279C42.4279 4.48227 42.7473 5.24129 43.3416 5.84063C43.909 6.41274 44.6814 6.79531 45.5383 7.0607L46.13 5.15024ZM44.4279 3.60352C44.4279 2.76069 45.1546 1.95117 46.5724 1.95117V-0.0488281C44.4082 -0.0488281 42.4279 1.32915 42.4279 3.60352H44.4279ZM46.5724 1.95117C47.9328 1.95117 48.6505 2.73597 48.6906 3.63444L50.6886 3.54525C50.592 1.38122 48.7941 -0.0488281 46.5724 -0.0488281V1.95117ZM49.6896 2.58984H48.9923V4.58984H49.6896V2.58984ZM55.2327 1.10156V0.101562H53.3887L54.3946 1.64706L55.2327 1.10156ZM56.0667 1.10156L56.9069 0.559215L56.6114 0.101562H56.0667V1.10156ZM59.1292 5.8457L58.2891 6.38805L58.5845 6.8457H59.1292V5.8457ZM59.1976 5.8457V6.8457H59.7436L60.0388 6.38634L59.1976 5.8457ZM62.2464 1.10156V0.101562H61.7004L61.4051 0.560927L62.2464 1.10156ZM63.0804 1.10156L63.9195 1.64559L64.9206 0.101562H63.0804V1.10156ZM59.5257 6.58398L58.6866 6.03995L58.5257 6.28816V6.58398H59.5257ZM59.5257 11V12H60.5257V11H59.5257ZM58.8011 11H57.8011V12H58.8011V11ZM58.8011 6.58398H59.8011V6.28721L59.6392 6.03848L58.8011 6.58398ZM55.2327 2.10156H56.0667V0.101562H55.2327V2.10156ZM55.2266 1.64391L58.2891 6.38805L59.9694 5.30336L56.9069 0.559215L55.2266 1.64391ZM59.1292 6.8457H59.1976V4.8457H59.1292V6.8457ZM60.0388 6.38634L63.0877 1.6422L61.4051 0.560927L58.3563 5.30507L60.0388 6.38634ZM62.2464 2.10156H63.0804V0.101562H62.2464V2.10156ZM62.2413 0.557531L58.6866 6.03995L60.3648 7.12802L63.9195 1.64559L62.2413 0.557531ZM58.5257 6.58398V11H60.5257V6.58398H58.5257ZM59.5257 10H58.8011V12H59.5257V10ZM59.8011 11V6.58398H57.8011V11H59.8011ZM59.6392 6.03848L56.0708 0.55606L54.3946 1.64706L57.963 7.12949L59.6392 6.03848Z" fill="black" mask="url(#path-1-outside-1_5095_6128)"/>
</svg>
